<svg width="21" height="22" viewBox="0 0 21 22" fill="none" xmlns="http://www.w3.org/2000/svg">
<path d="M2.6641 21.348C1.6081 19.596 0.9001 17.76 0.5401 15.84C0.1801 13.896 0.1441 11.976 0.4321 10.08C0.7201 8.18403 1.3321 6.37203 2.2681 4.64403C3.2281 2.91603 4.5001 1.36803 6.0841 2.90871e-05L8.2801 1.33203C8.6641 1.59603 8.8321 1.92003 8.7841 2.30403C8.7361 2.66403 8.6041 2.96403 8.3881 3.20403C7.8121 3.92403 7.2961 4.82403 6.8401 5.90403C6.4081 6.96003 6.1201 8.11203 5.9761 9.36003C5.8321 10.608 5.8801 11.904 6.1201 13.248C6.3601 14.592 6.8641 15.912 7.6321 17.208C7.9681 17.76 8.0641 18.252 7.9201 18.684C7.7761 19.116 7.4641 19.428 6.9841 19.62L2.6641 21.348ZM13.8601 21.348C12.8041 19.596 12.0961 17.76 11.7361 15.84C11.3761 13.896 11.3401 11.976 11.6281 10.08C11.9161 8.18403 12.5281 6.37203 13.4641 4.64403C14.4241 2.91603 15.6961 1.36803 17.2801 2.90871e-05L19.4761 1.33203C19.8601 1.59603 20.0281 1.92003 19.9801 2.30403C19.9321 2.66403 19.8001 2.96403 19.5841 3.20403C19.0081 3.92403 18.4921 4.82403 18.0361 5.90403C17.6041 6.96003 17.3161 8.11203 17.1721 9.36003C17.0281 10.608 17.0761 11.904 17.3161 13.248C17.5561 14.592 18.0601 15.912 18.8281 17.208C19.1641 17.76 19.2601 18.252 19.1161 18.684C18.9721 19.116 18.6601 19.428 18.1801 19.62L13.8601 21.348Z" fill="#FAC663"/>
</svg>
